PathFileType	4	(X/Y/Z)	C:\Users\°ÂÌØÂü\Desktop\20210112\bx_n_5_501-Unnamed.trc
DataRate	CameraRate	NumFrames	NumMarkers	Units	OrigDataRate	OrigDataStartFrame	OrigNumFrames
50.00	50.00	       8	0	mm	50.00	194	       517
Frame#	Time	
		

194	3.860	-243.73660	143.51234	1534.29858	-407.94919	-40.22796	1285.43384	-737.02570	2.79510	806.26788	-740.98322	233.24565	793.11896	-830.87561	288.26276	732.69708	-753.13007	251.06508	1030.53809	-838.61829	262.19580	628.91949	-763.36572	215.82576	537.62006	-848.17279	268.71783	485.54510	-517.95294	-72.97839	143.21260	-548.85748	-21.72195	162.39742	-794.95160	34.57838	173.98804	-750.54181	6.68901	1009.37952	-600.71271	28.47885	166.99403	-675.66705	51.41216	162.42410	-721.69946	159.13734	223.79485	-799.88477	183.13860	181.65309	-773.96069	231.46394	201.81293	-594.90417	218.05040	173.63631	-882.66101	296.08188	144.81087	-558.20044	253.73082	163.36993	-660.32507	298.61859	156.13345	-623.62073	306.65460	158.41635	-527.96802	303.98944	146.52243				-935.78656	104.67715	1090.51270	-827.54419	-46.93444	477.06494	-763.26447	-23.66859	204.89809	-875.89227	-78.68859	141.12689	-824.93768	-61.17792	866.36127	-806.71075	-31.06807	610.04254	-804.67847	-30.09005	563.52051	-677.38800	175.21794	163.43582	-605.96777	-73.12373	156.28111	-648.42841	-67.76747	161.50819	-821.21356	-57.48235	749.55353	-727.72424	66.48770	220.34901	-423.56677	295.34802	1287.66602				-849.63062	295.53375	865.95844				-746.07275	19.10277	525.74823	-825.64471	257.05591	564.65393	-786.88062	76.95316	565.29596	
195	3.880	-251.15096	143.28365	1544.73999	-411.34561	-39.89599	1292.13501	-735.85980	2.91463	806.15509	-739.46252	233.33638	793.36639	-830.19250	288.24481	732.77820	-751.97119	251.60155	1031.61243	-837.69385	262.61292	629.42554	-762.56763	216.28842	537.61719	-847.56818	268.95212	485.31219	-518.11487	-72.75928	142.96504	-549.00397	-21.80385	162.28552	-794.95160	34.57838	173.98804	-749.27448	6.50510	1010.86029	-600.89001	28.50189	167.14725	-675.60193	51.23518	162.83025	-721.57428	159.33011	223.71527	-799.98572	183.08994	181.67250	-773.95935	231.78529	201.86478	-595.29016	218.23300	173.84573	-882.57037	296.17642	144.82063	-558.04858	253.51973	163.57005	-660.29871	298.58234	156.02980	-623.61542	306.64639	158.59305	-527.91223	304.38483	146.62103				-935.48242	104.59347	1090.15784	-827.05731	-46.52775	477.16565	-763.24127	-23.67514	204.94040	-875.87097	-78.64214	141.18979	-823.00751	-61.69849	867.14008	-805.56116	-31.01493	610.20154	-803.67822	-29.75723	562.97949	-677.78906	175.71518	163.44308	-605.88171	-73.21831	156.67055	-648.34741	-67.79872	161.39488	-820.22906	-57.04490	749.59674	-727.54315	66.28580	220.06233	-427.01691	295.83127	1294.50964				-848.18579	295.96234	866.73444				-745.12225	19.41416	525.56128	-824.95215	257.66730	565.24005	-786.12848	77.04573	565.84595	
196	3.900	-258.73294	143.10297	1554.74597	-415.17682	-40.38380	1298.54102	-734.31421	2.72500	806.45740	-738.32678	233.77354	793.98590	-828.81427	287.93030	732.84302	-751.08600	251.49007	1032.43506	-836.67896	262.80362	629.50439	-761.72052	216.62074	537.55304	-846.36847	269.10013	485.73044	-518.16418	-72.64481	143.08858	-549.16083	-22.02384	162.50996	-795.02472	34.73643	173.83606	-747.65436	6.57487	1012.34479	-600.77686	28.50992	167.02878	-675.47650	51.29206	162.46637	-721.57428	159.33011	223.71527	-799.94788	183.01904	181.66399	-774.03564	231.66385	201.91344	-594.96619	218.90999	174.02768	-882.57037	296.17642	144.82063	-558.20502	253.83043	163.57954	-660.29871	298.58234	156.02980	-623.76678	306.61377	158.41180	-527.87677	304.30341	146.78995				-935.49115	104.21900	1090.33447	-826.44458	-46.32069	476.81464	-763.48499	-23.71981	204.98463	-875.88751	-78.54328	141.29303	-820.98224	-61.46969	867.31628	-804.97455	-31.26904	610.56921	-802.86115	-29.93624	563.31689	-677.44995	175.52815	163.60036	-605.86932	-73.32871	156.55946	-648.31000	-67.83784	161.55043	-818.69421	-56.40877	749.57562	-727.38806	66.11362	220.20792	-430.08087	296.50760	1301.76379				-847.21271	295.70673	866.48242				-744.40253	19.75432	525.64575	-824.08954	257.76331	565.32312	-785.14526	77.09267	566.16705	
197	3.920	-266.63547	142.59773	1564.91162	-418.73630	-39.89180	1305.67542	-732.94220	2.62712	806.63300	-736.78137	234.16061	794.27759	-827.62170	288.03564	733.21808	-750.09186	251.58350	1033.70886	-835.59381	262.47488	629.66193	-761.01697	216.92422	537.64044	-845.72632	269.31375	486.17432	-517.81464	-72.88675	143.04057	-548.94739	-21.99972	162.64207	-794.99731	34.87174	173.93738	-746.56055	7.20130	1013.28192	-600.80347	28.36504	167.06155	-675.86902	51.32370	162.68127	-721.55402	159.39787	223.77731	-799.97754	182.95416	181.81180	-773.92926	231.94550	201.84856	-595.04028	218.89044	174.07561	-882.57037	296.17642	144.82063	-558.35492	253.56239	163.68829	-660.29871	298.58234	156.02980	-623.62384	306.59958	158.22337	-528.00012	304.17847	146.71024				-934.87555	104.71745	1089.03430	-825.39337	-46.70652	477.75363	-763.49072	-23.45557	204.92033	-875.88751	-78.54328	141.29303	-819.48840	-61.34656	867.63483	-803.82880	-30.95896	610.33740	-801.94427	-30.05834	563.88232	-677.59875	175.59023	163.43216	-605.90350	-73.18492	156.53224	-648.30865	-67.77584	161.47134	-816.90137	-56.82661	750.87988	-727.46924	66.23447	220.19267	-434.00851	296.75061	1308.75183				-845.56262	296.14822	867.04730				-743.53815	19.58755	525.40753	-823.16473	257.66711	565.36761	-783.96057	77.59418	566.16315	
198	3.940	-274.45789	142.45728	1575.52148	-422.86948	-40.06750	1312.93164	-731.24194	3.15692	806.88568	-735.03113	234.55679	794.37787	-826.43079	288.25024	733.75171	-748.33813	252.30663	1034.93726	-834.58582	262.96985	630.12836	-760.22528	216.77579	537.70483	-845.20673	269.37579	486.34674	-518.03082	-73.02309	143.32256	-549.01270	-21.91226	162.67056	-795.07141	34.99466	173.85707	-745.23883	7.11996	1014.93359	-600.86700	28.43166	167.07121	-675.63495	51.28602	162.55566	-721.57428	159.33011	223.71527	-799.84692	183.06770	181.64456	-773.87463	231.86729	201.82207	-595.04077	218.86420	174.13304	-882.54590	296.12497	144.77463	-558.39423	253.78336	163.54620	-660.40344	298.65070	156.01486	-623.92896	306.61948	158.24393	-528.05878	304.44302	146.62941				-933.65735	104.28962	1088.67126	-825.14880	-46.37426	477.62601	-763.31073	-23.29289	204.85159	-875.80023	-78.62018	141.04199	-818.44177	-61.14445	868.02716	-802.88263	-31.05888	610.74023	-801.47955	-29.69156	564.02502	-677.56580	175.33858	163.28369	-605.96674	-73.17828	156.42003	-648.42841	-67.76747	161.50819	-816.63635	-56.25950	750.35449	-726.97241	65.85923	219.88814	-437.57455	297.41531	1316.18921				-843.52264	295.85364	867.29401				-742.60016	19.36720	525.64160	-822.31451	258.50366	565.57477	-783.24872	77.59772	566.07275	
199	3.960	-282.76410	142.20699	1585.80273	-426.89578	-40.36926	1320.11084	-729.90228	2.62233	807.06775	-733.27618	234.53494	794.25159	-825.01685	287.86935	733.92944	-747.72321	252.38930	1036.44482	-833.37598	263.30264	630.30066	-758.96130	216.87067	537.71973	-844.43610	269.38989	485.86438	-517.94836	-73.00831	143.17789	-549.28955	-21.88755	162.44084	-795.01953	34.94680	173.83513	-743.37952	7.09391	1016.38196	-600.78320	28.32498	167.17299	-675.67719	51.45029	162.65038	-721.36304	159.31575	223.61053	-799.80054	183.00853	181.73642	-773.74933	231.80991	201.92995	-594.98297	218.98294	174.01740	-882.57037	296.17642	144.82063	-558.30365	253.69438	163.74429	-660.40344	298.65070	156.01486	-623.75018	306.73068	158.15613	-527.90094	304.24487	146.44876				-932.69818	104.95461	1087.90112	-824.30420	-46.42872	478.09433	-763.52295	-23.45234	205.09592	-875.88751	-78.54328	141.29303	-816.95801	-60.74425	868.02350	-802.01123	-30.37833	610.92944	-800.41498	-29.62796	563.97534	-678.49829	175.18921	163.33328	-605.97125	-73.31898	156.50462	-648.46576	-67.72358	161.34656	-815.61823	-55.97224	750.48376	-726.66931	65.84896	220.01613	-441.84811	297.63220	1323.80896				-842.14948	295.87131	867.29999				-741.85156	19.39190	525.77301	-821.28021	258.29910	565.69385	-782.16870	77.30563	565.94867	
200	3.980	-290.79575	141.98232	1596.20337				-727.97577	2.08353	807.36456	-731.50165	234.78191	794.55609	-823.56683	287.46927	734.21729	-746.50836	252.61270	1037.77039	-832.31024	263.06848	630.73041	-758.56970	217.05222	537.71021	-843.26385	269.06537	485.82291	-517.88947	-72.94445	143.28894	-549.25946	-22.07067	162.47552	-794.91541	35.04367	173.77177	-741.80560	6.85022	1018.07068	-601.00568	28.21692	167.16071	-675.72809	51.40901	162.82719	-721.16486	159.30069	223.17697	-799.78802	183.05428	181.79869	-773.81781	231.93837	201.75125	-594.98297	218.98294	174.01740	-882.72400	296.17868	144.67067	-558.30585	253.69038	163.65611	-660.29871	298.58234	156.02980	-623.92859	306.76819	158.06387	-527.91223	304.38483	146.62103				-931.86804	105.25383	1087.37549	-823.46643	-46.13818	478.32144	-763.43243	-23.43686	205.02910	-875.99792	-78.69180	141.55168	-815.39886	-60.02930	867.96564	-800.43921	-30.46916	611.37427	-799.12372	-29.59548	564.34918	-677.37738	175.61995	163.15080	-605.89246	-73.25138	156.44305	-648.73431	-67.80540	161.42549	-813.46210	-55.90410	751.35077	-726.92633	64.68829	218.62965	-445.47787	297.76581	1331.29956				-840.58820	295.99820	867.88263				-741.08087	19.62448	525.56323	-820.59698	258.40402	565.93939	-780.60632	77.61884	566.16095	
201	4.000	-299.14307	141.56305	1606.31128	-435.19025	-40.40537	1334.87903	-726.46967	2.23978	807.31311	-730.05804	235.10442	794.69659	-822.30963	287.47006	734.46436	-744.90900	252.91322	1038.85315	-831.45483	263.13910	630.92072	-757.70685	216.99933	537.47150	-842.97321	269.02991	486.36838	-517.53284	-73.18807	143.32755	-549.42188	-22.30581	162.37453	-794.84686	35.10509	173.88205				-600.95599	28.25429	167.63725	-675.58405	51.32729	162.37881	-721.15332	159.23837	223.04968	-799.86487	182.92999	181.99794	-774.01599	232.12610	201.93912	-594.94922	218.94754	174.04037	-882.50861	295.97504	144.73320	-558.38129	253.74216	163.56998	-660.40344	298.65070	156.01486	-623.96240	306.67050	157.64223	-528.03619	304.42505	146.76379							-822.87122	-46.06118	478.52795	-763.54590	-23.27968	205.20129	-875.88751	-78.54328	141.29303	-814.28857	-59.93424	868.46967	-800.05566	-30.35529	611.39026	-798.53595	-29.41250	564.42108	-677.52838	175.77692	163.28749	-605.89081	-73.36449	156.40523	-648.42938	-67.96093	161.42746	-811.11133	-56.73749	752.29584	-726.82410	65.00823	218.71628	-449.71582	298.12048	1338.92859				-838.79456	295.55557	867.76801				-740.01569	19.26245	525.62158	-820.11853	258.54333	566.18994	-779.78516	77.88683	566.47015	
